<svg xmlns="http://www.w3.org/2000/svg" version="1.1" xmlns:xlink="http://www.w3.org/1999/xlink" xmlns:svgjs="http://svgjs.dev/svgjs" width="1000" height="623" viewBox="0 0 1000 623"><g transform="matrix(1,0,0,1,-0.6056348047761162,0.2522267206477409)"><svg viewBox="0 0 396 247" data-background-color="#42047e" preserveAspectRatio="xMidYMid meet" height="623" width="1000" xmlns="http://www.w3.org/2000/svg" xmlns:xlink="http://www.w3.org/1999/xlink"><g id="tight-bounds" transform="matrix(1,0,0,1,0.24008861730862918,-0.09999999999999432)"><svg viewBox="0 0 395.52 247.2" height="247.2" width="395.52"><g><svg></svg></g><g><svg viewBox="0 0 395.52 247.2" height="247.2" width="395.52"><g><g><path xmlns="http://www.w3.org/2000/svg" d="M146.405 199.849c2.553 0.232 5.524 0.395 8.913 0.487 3.342 0.139 7.335 0.209 11.977 0.209 25.971 0 45.531-6.262 58.681-18.786h66.018c-6.372 13.842-15.024 25.443-25.958 34.802-11.977 10.213-26.554 17.873-43.73 22.979-17.176 5.106-36.442 7.66-57.796 7.66-9.749 0-21.122-0.395-34.121-1.184-12.998-0.836-25.765-2.53-38.298-5.083l0-59.174h54.314zM169.036 46.306c-3.714 0-7.544 0.046-11.49 0.14-3.946 0.139-7.66 0.441-11.141 0.905l0 18.09-54.314 0v-59.522c12.534-2.321 25.602-3.899 39.204-4.735 13.555-0.789 25.207-1.184 34.956-1.184 20.658 0 39.413 2.321 56.264 6.963 16.805 4.642 31.242 11.954 43.312 21.935 11.613 9.603 20.647 21.784 27.103 36.543h-64.71c-12.552-12.757-32.28-19.135-59.184-19.135z" fill="#ffffff" fill-rule="nonzero" stroke="none" stroke-width="1" stroke-linecap="butt" stroke-linejoin="miter" stroke-miterlimit="10" stroke-dasharray="" stroke-dashoffset="0" font-family="none" font-weight="none" font-size="none" text-anchor="none" style="mix-blend-mode: normal" data-fill-palette-color="tertiary"></path></g></g><g transform="matrix(1,0,0,1,0,73.99649514586605)"><svg viewBox="0 0 395.52 99.20700970826789" height="99.20700970826789" width="395.52"><g><svg viewBox="0 0 395.52 99.20700970826789" height="99.20700970826789" width="395.52"><g><svg viewBox="0 0 395.52 99.20700970826789" height="99.20700970826789" width="395.52"><g id="textblocktransform"><svg viewBox="0 0 395.52 99.20700970826789" height="99.20700970826789" width="395.52" id="textblock"><g><svg viewBox="0 0 395.52 72.73516147540293" height="72.73516147540293" width="395.52"><path d="M394.594 15.6C392.735 8.05 387.435 5.952 387.435 5.952 371.165-1.825 350.86-0.149 332.619 0.969 300.414 1.014 268.339 2.675 236.208 3.566 168.767 3.702 100.749 1.467 33.643 6.978 27.339 8.67-6.54 7.311 1.121 16.567 3.129 20.417 10.456 24.69 10.232 28.224 11.236 28.843 12.631 27.423 13.226 28.314 15.309 30.715 18.711 29.583 21.501 31.002 17.614 34.792 20.403 37.948 23.062 41.255 18.377 42.115 12.371 41.708 9.675 44.562 9.396 46.63 7.89 46.238 6.235 46.147 5.026 46.087 2.59 46.313 2.999 46.963 4.394 49.182-1.594 50.466 2.162 52.64-0.422 54.996 3.948 57.034 3.353 59.586 3.278 60.099 3.687 60.537 4.338 60.658 7.22 61.307 3.018 62.576 3.464 63.95 33.029 73.342 65.104 66.849 95.394 71.167 103.259 68.147 97.346 72.24 100.489 71.605 102.943 70.865 104.728 73.931 107.499 72.194 107.927 71.696 107.276 70.518 108.8 70.745 109.6 70.865 110.307 70.835 110.418 70.141 110.586 69.099 109.117 69.748 108.726 69.204 112.947 66.456 111.906 72.995 115.866 72.723 115.68 71.922 114.528 70.775 116.889 70.926 119.232 69.778 119.306 68.827 121.389 71.409 121.463 71.968 121.835 72.36 122.43 72.632 128.938 69.824 135.409 73.629 142.233 72.36 146.417 70.971 150.433 73.115 154.672 72.587 156.16 72.164 157.666 71.409 159.098 72.677 176.632 72.949 195.319 71.817 211.943 72.723 256.364 71.032 303.835 73.417 350.674 71.183 361.719 70.322 373.192 69.099 383.958 68.117 383.958 68.117 392.679 65.43 392.679 53.35S394.538 42.78 394.817 33.161C395.096 23.543 396.398 23.15 394.538 15.6Z" opacity="1" fill="#ffffff" data-fill-palette-color="tertiary"></path><g transform="matrix(1,0,0,1,55.76832,18.247992802666666)"><svg width="283.98335999999995" viewBox="4 -35.04999923706055 280.1300048828125 35.75" height="36.2391758700696" data-palette-color="#42047e"><path d="M11.8-28.25L11.8-6.35Q12.35-6.3 13.08-6.28 13.8-6.25 14.8-6.25L14.8-6.25Q20.65-6.25 23.48-9.2 26.3-12.15 26.3-17.35L26.3-17.35Q26.3-22.8 23.6-25.6 20.9-28.4 15.05-28.4L15.05-28.4Q14.25-28.4 13.4-28.38 12.55-28.35 11.8-28.25L11.8-28.25ZM34.35-17.35L34.35-17.35Q34.35-12.85 32.95-9.5 31.55-6.15 28.98-3.95 26.4-1.75 22.7-0.65 19 0.45 14.4 0.45L14.4 0.45Q12.3 0.45 9.5 0.28 6.7 0.1 4-0.45L4-0.45 4-34.2Q6.7-34.7 9.63-34.88 12.55-35.05 14.65-35.05L14.65-35.05Q19.1-35.05 22.73-34.05 26.35-33.05 28.95-30.9 31.55-28.75 32.95-25.4 34.35-22.05 34.35-17.35ZM71.15 0L62.8 0Q62.25-1.8 61.57-3.7 60.9-5.6 60.25-7.5L60.25-7.5 46.75-7.5Q46.1-5.6 45.42-3.7 44.75-1.8 44.2 0L44.2 0 36.1 0Q38.05-5.6 39.8-10.35 41.55-15.1 43.22-19.3 44.9-23.5 46.52-27.28 48.15-31.05 49.9-34.65L49.9-34.65 57.35-34.65Q59.05-31.05 60.7-27.28 62.35-23.5 64.02-19.3 65.7-15.1 67.45-10.35 69.2-5.6 71.15 0L71.15 0ZM53.45-26.8L53.45-26.8Q53.2-26.05 52.7-24.75 52.2-23.45 51.55-21.75 50.9-20.05 50.12-18 49.35-15.95 48.55-13.7L48.55-13.7 58.4-13.7Q57.6-15.95 56.85-18 56.1-20.05 55.42-21.75 54.75-23.45 54.25-24.75 53.75-26.05 53.45-26.8ZM68.55-34.65L97.25-34.65 97.25-28 86.8-28 86.8 0 79 0 79-28 68.55-28 68.55-34.65ZM129.69 0L121.34 0Q120.79-1.8 120.12-3.7 119.44-5.6 118.79-7.5L118.79-7.5 105.29-7.5Q104.64-5.6 103.97-3.7 103.29-1.8 102.74 0L102.74 0 94.64 0Q96.59-5.6 98.34-10.35 100.09-15.1 101.77-19.3 103.44-23.5 105.07-27.28 106.69-31.05 108.44-34.65L108.44-34.65 115.89-34.65Q117.59-31.05 119.24-27.28 120.89-23.5 122.57-19.3 124.24-15.1 125.99-10.35 127.74-5.6 129.69 0L129.69 0ZM111.99-26.8L111.99-26.8Q111.74-26.05 111.24-24.75 110.74-23.45 110.09-21.75 109.44-20.05 108.67-18 107.89-15.95 107.09-13.7L107.09-13.7 116.94-13.7Q116.14-15.95 115.39-18 114.64-20.05 113.97-21.75 113.29-23.45 112.79-24.75 112.29-26.05 111.99-26.8ZM148.74 0L141.24 0Q139.19-4.35 137.19-9.05 135.19-13.75 133.39-18.35 131.59-22.95 130.07-27.15 128.54-31.35 127.44-34.65L127.44-34.65 136.04-34.65Q137.04-31.65 138.22-28.18 139.39-24.7 140.62-21.25 141.84-17.8 142.99-14.65 144.14-11.5 145.14-9.2L145.14-9.2Q146.09-11.5 147.27-14.65 148.44-17.8 149.67-21.25 150.89-24.7 152.07-28.18 153.24-31.65 154.24-34.65L154.24-34.65 162.54-34.65Q161.39-31.35 159.89-27.15 158.39-22.95 156.59-18.35 154.79-13.75 152.79-9.05 150.79-4.35 148.74 0L148.74 0ZM195.34 0L186.99 0Q186.44-1.8 185.76-3.7 185.09-5.6 184.44-7.5L184.44-7.5 170.94-7.5Q170.29-5.6 169.61-3.7 168.94-1.8 168.39 0L168.39 0 160.29 0Q162.24-5.6 163.99-10.35 165.74-15.1 167.41-19.3 169.09-23.5 170.71-27.28 172.34-31.05 174.09-34.65L174.09-34.65 181.54-34.65Q183.24-31.05 184.89-27.28 186.54-23.5 188.21-19.3 189.89-15.1 191.64-10.35 193.39-5.6 195.34 0L195.34 0ZM177.64-26.8L177.64-26.8Q177.39-26.05 176.89-24.75 176.39-23.45 175.74-21.75 175.09-20.05 174.31-18 173.54-15.95 172.74-13.7L172.74-13.7 182.59-13.7Q181.79-15.95 181.04-18 180.29-20.05 179.61-21.75 178.94-23.45 178.44-24.75 177.94-26.05 177.64-26.8ZM212.39 0.7L212.39 0.7Q208.74 0.7 206.09-0.33 203.44-1.35 201.71-3.18 199.99-5 199.16-7.53 198.34-10.05 198.34-13.1L198.34-13.1 198.34-34.65 206.14-34.65 206.14-13.75Q206.14-11.65 206.61-10.18 207.09-8.7 207.91-7.78 208.74-6.85 209.91-6.45 211.09-6.05 212.49-6.05L212.49-6.05Q215.34-6.05 217.11-7.8 218.89-9.55 218.89-13.75L218.89-13.75 218.89-34.65 226.69-34.65 226.69-13.1Q226.69-10.05 225.84-7.5 224.99-4.95 223.24-3.13 221.49-1.3 218.79-0.3 216.09 0.7 212.39 0.7ZM241.98-6.7L257.33-6.7 257.33 0 234.18 0 234.18-34.65 241.98-34.65 241.98-6.7ZM255.43-34.65L284.13-34.65 284.13-28 273.68-28 273.68 0 265.88 0 265.88-28 255.43-28 255.43-34.65Z" opacity="1" transform="matrix(1,0,0,1,0,0)" fill="#42047e" class="undefined-text-0" data-fill-palette-color="quaternary" id="text-0"></path></svg></g></svg></g><g transform="matrix(1,0,0,1,81.09736628612369,81.29036115810548)"><svg viewBox="0 0 233.3252674277526 17.91664855016241" height="17.91664855016241" width="233.3252674277526"><g transform="matrix(1,0,0,1,0,0)"><svg width="233.3252674277526" viewBox="1.9500000476837158 -36.75 485.0199890136719 37.25" height="17.91664855016241" data-palette-color="#ffffff"><path d="M7.8-13.95L3.4-13.95Q2.6-13.95 2.53-14.23 2.45-14.5 2.45-15.15L2.45-15.15 2.45-34.05Q2.45-34.15 2.5-34.58 2.55-35 3.15-35L3.15-35 7.7-35Q10.85-35 12.95-34.02 15.05-33.05 16.07-30.85 17.1-28.65 17.1-25L17.1-25Q17.1-21.8 16.32-19.68 15.55-17.55 14.25-16.3 12.95-15.05 11.3-14.5 9.65-13.95 7.8-13.95L7.8-13.95ZM1.95 0L1.95 0 1.95-34.1Q1.95-34.6 2.13-34.8 2.3-35 2.85-35L2.85-35 5.65-35Q6.3-35 6.4-34.55 6.5-34.1 6.5-34.1L6.5-34.1 6.5-0.9Q6.5-0.45 6.3-0.28 6.1-0.1 5.18-0.05 4.25 0 1.95 0ZM6.45-31L6.45-18.2 8.3-18.2Q9.5-18.2 10.3-18.88 11.1-19.55 11.55-21.15 12-22.75 12-25.5L12-25.5Q12-27.25 11.68-28.48 11.35-29.7 10.63-30.35 9.9-31 8.6-31L8.6-31 6.45-31ZM19.9 0L19.9 0 19.9-23.25Q21.3-24.25 23.05-24.88 24.8-25.5 26.75-25.5L26.75-25.5Q28.75-25.5 29.47-24.95 30.2-24.4 30.2-23.25L30.2-23.25Q30.2-22.85 30.1-22.1 30-21.35 29.7-20.6L29.7-20.6Q29.2-20.85 28.65-20.98 28.1-21.1 27.5-21.1L27.5-21.1Q26.8-21.1 26.02-20.85 25.25-20.6 24.6-20.1L24.6-20.1 24.55-0.9Q24.55-0.45 24.35-0.28 24.15-0.1 23.17-0.05 22.2 0 19.9 0ZM38.84 0.5L38.84 0.5Q36.9 0.5 35.42 0.03 33.95-0.45 32.95-1.8 31.95-3.15 31.47-5.73 31-8.3 31-12.5L31-12.5Q31-19.35 33.2-22.43 35.4-25.5 39.3-25.5L39.3-25.5Q41.95-25.5 43.67-24.43 45.4-23.35 46.22-20.55 47.05-17.75 47.05-12.65L47.05-12.65Q47.05-5.6 44.97-2.55 42.9 0.5 38.84 0.5ZM39-3.35L39-3.35Q39.9-3.35 40.57-4.05 41.25-4.75 41.67-6.75 42.09-8.75 42.09-12.6L42.09-12.6Q42.09-16.45 41.8-18.4 41.5-20.35 40.84-21 40.2-21.65 39.15-21.65L39.15-21.65Q38.2-21.65 37.47-20.95 36.75-20.25 36.34-18.25 35.95-16.25 35.95-12.45L35.95-12.45Q35.95-9.45 36.15-7.6 36.34-5.75 36.72-4.85 37.09-3.95 37.67-3.65 38.25-3.35 39-3.35ZM56.64 0.5L56.64 0.5Q54.49 0.5 53.44-0.38 52.39-1.25 52.07-2.93 51.74-4.6 51.74-6.8L51.74-6.8 51.74-21.1 48.44-21.1Q48.44-22.85 48.49-23.68 48.54-24.5 48.77-24.75 48.99-25 49.44-25L49.44-25 51.74-25 51.74-32.5Q51.74-33.25 52.12-33.55 52.49-33.85 53.47-33.93 54.44-34 56.29-34L56.29-34 56.29-25 61.09-25Q61.09-23.25 61.04-22.43 60.99-21.6 60.82-21.35 60.64-21.1 60.19-21.1L60.19-21.1 56.29-21.1 56.29-6.85Q56.29-5.95 56.37-5.15 56.44-4.35 56.77-3.88 57.09-3.4 57.89-3.4L57.89-3.4Q58.74-3.4 59.37-3.58 59.99-3.75 60.74-4.1L60.74-4.1Q60.84-3.7 60.94-3.15 61.04-2.6 61.04-1.9L61.04-1.9Q61.04-0.9 60.34-0.38 59.64 0.15 58.64 0.33 57.64 0.5 56.64 0.5ZM70.49 0.5L70.49 0.5Q68.74 0.5 67.29 0 65.84-0.5 64.79-1.75 63.74-3 63.14-5.3 62.54-7.6 62.54-11.25L62.54-11.25Q62.54-15.9 63.29-18.73 64.04-21.55 65.29-23 66.54-24.45 68.14-24.98 69.74-25.5 71.39-25.5L71.39-25.5Q74.49-25.5 76.14-23.53 77.79-21.55 77.79-17.45L77.79-17.45Q77.79-15.7 77.64-13.9 77.49-12.1 77.14-10.75L77.14-10.75Q75.49-10.4 73.47-10.23 71.44-10.05 69.57-10 67.69-9.95 66.49-9.95 65.29-9.95 65.29-9.95L65.29-9.95 65.39-13.65Q65.39-13.65 66.24-13.63 67.09-13.6 68.39-13.6 69.69-13.6 70.97-13.73 72.24-13.85 73.09-14.1L73.09-14.1Q73.24-14.75 73.29-15.53 73.34-16.3 73.34-17L73.34-17Q73.29-19.6 72.77-20.55 72.24-21.5 70.84-21.5L70.84-21.5Q70.04-21.5 69.39-21 68.74-20.5 68.27-19.35 67.79-18.2 67.54-16.28 67.29-14.35 67.29-11.45L67.29-11.45Q67.29-9.3 67.52-7.85 67.74-6.4 68.22-5.55 68.69-4.7 69.52-4.33 70.34-3.95 71.49-3.95L71.49-3.95Q72.94-3.95 74.37-4.35 75.79-4.75 77.04-5.45L77.04-5.45Q77.29-4.8 77.37-3.93 77.44-3.05 77.44-2.35L77.44-2.35Q77.44-1.5 76.49-0.85 75.54-0.2 73.97 0.15 72.39 0.5 70.49 0.5ZM87.79 0.5L87.79 0.5Q85.94 0.5 84.54 0.03 83.14-0.45 82.21-1.8 81.29-3.15 80.81-5.58 80.34-8 80.34-11.95L80.34-11.95Q80.34-16.45 81.14-19.15 81.94-21.85 83.26-23.23 84.59-24.6 86.16-25.05 87.74-25.5 89.29-25.5L89.29-25.5Q91.09-25.5 92.26-24.85 93.44-24.2 93.44-23.15L93.44-23.15Q93.44-22.7 93.34-22.05 93.24-21.4 92.99-20.65L92.99-20.65Q92.39-20.95 91.46-21.2 90.54-21.45 89.59-21.45L89.59-21.45Q88.79-21.45 87.99-21.15 87.19-20.85 86.54-19.9 85.89-18.95 85.49-17.05 85.09-15.15 85.09-11.95L85.09-11.95Q85.09-9.5 85.31-7.85 85.54-6.2 86.04-5.28 86.54-4.35 87.31-3.95 88.09-3.55 89.19-3.55L89.19-3.55Q90.29-3.55 91.29-3.85 92.29-4.15 92.89-4.55L92.89-4.55Q93.14-3.8 93.24-3.23 93.34-2.65 93.34-2.1L93.34-2.1Q93.34-1 91.79-0.25 90.24 0.5 87.79 0.5ZM103.19 0.5L103.19 0.5Q101.04 0.5 99.99-0.38 98.94-1.25 98.61-2.93 98.29-4.6 98.29-6.8L98.29-6.8 98.29-21.1 94.99-21.1Q94.99-22.85 95.04-23.68 95.09-24.5 95.31-24.75 95.54-25 95.99-25L95.99-25 98.29-25 98.29-32.5Q98.29-33.25 98.66-33.55 99.04-33.85 100.01-33.93 100.99-34 102.84-34L102.84-34 102.84-25 107.64-25Q107.64-23.25 107.59-22.43 107.54-21.6 107.36-21.35 107.19-21.1 106.74-21.1L106.74-21.1 102.84-21.1 102.84-6.85Q102.84-5.95 102.91-5.15 102.99-4.35 103.31-3.88 103.64-3.4 104.44-3.4L104.44-3.4Q105.29-3.4 105.91-3.58 106.54-3.75 107.29-4.1L107.29-4.1Q107.39-3.7 107.49-3.15 107.59-2.6 107.59-1.9L107.59-1.9Q107.59-0.9 106.89-0.38 106.19 0.15 105.19 0.33 104.19 0.5 103.19 0.5ZM134.33-35L126.88-11.45 124.18-11.45 116.58-34.3Q116.43-34.65 116.66-34.8 116.88-34.95 118.01-34.98 119.13-35 121.78-35L121.78-35 123.58-28.25Q123.88-27.15 124.26-25.68 124.63-24.2 124.93-22.7 125.23-21.2 125.46-19.98 125.68-18.75 125.68-18.05L125.68-18.05Q125.78-18.75 126.01-19.98 126.23-21.2 126.53-22.7 126.83-24.2 127.18-25.7 127.53-27.2 127.88-28.3L127.88-28.3 129.43-34.2Q129.53-34.6 129.78-34.75 130.03-34.9 131.03-34.95 132.03-35 134.33-35L134.33-35ZM123.28 0L123.28 0 123.28-17.5 127.83-17.5 127.83-0.9Q127.83-0.45 127.66-0.28 127.48-0.1 126.53-0.05 125.58 0 123.28 0ZM140.38 0.5L140.38 0.5Q138.43 0.5 136.95 0.03 135.48-0.45 134.48-1.8 133.48-3.15 133-5.73 132.53-8.3 132.53-12.5L132.53-12.5Q132.53-19.35 134.73-22.43 136.93-25.5 140.83-25.5L140.83-25.5Q143.48-25.5 145.2-24.43 146.93-23.35 147.75-20.55 148.58-17.75 148.58-12.65L148.58-12.65Q148.58-5.6 146.5-2.55 144.43 0.5 140.38 0.5ZM140.53-3.35L140.53-3.35Q141.43-3.35 142.1-4.05 142.78-4.75 143.2-6.75 143.63-8.75 143.63-12.6L143.63-12.6Q143.63-16.45 143.33-18.4 143.03-20.35 142.38-21 141.73-21.65 140.68-21.65L140.68-21.65Q139.73-21.65 139-20.95 138.28-20.25 137.88-18.25 137.48-16.25 137.48-12.45L137.48-12.45Q137.48-9.45 137.68-7.6 137.88-5.75 138.25-4.85 138.63-3.95 139.2-3.65 139.78-3.35 140.53-3.35ZM159.28 0.5L159.28 0.5Q156.33 0.5 154.7-0.4 153.08-1.3 152.43-3.08 151.78-4.85 151.78-7.55L151.78-7.55 151.78-24.1Q151.78-24.55 151.98-24.73 152.18-24.9 153.18-24.95 154.18-25 156.53-25L156.53-25 156.53-7.2Q156.53-5.85 156.75-5.03 156.98-4.2 157.58-3.83 158.18-3.45 159.33-3.45L159.33-3.45Q159.93-3.45 160.73-3.63 161.53-3.8 162.18-4.3L162.18-4.3 162.18-24.1Q162.18-24.55 162.38-24.73 162.58-24.9 163.53-24.95 164.48-25 166.73-25L166.73-25 166.73-1.35Q165.38-0.6 163.38-0.05 161.38 0.5 159.28 0.5ZM170.77 0L170.77 0 170.77-23.25Q172.17-24.25 173.92-24.88 175.67-25.5 177.62-25.5L177.62-25.5Q179.62-25.5 180.35-24.95 181.07-24.4 181.07-23.25L181.07-23.25Q181.07-22.85 180.97-22.1 180.87-21.35 180.57-20.6L180.57-20.6Q180.07-20.85 179.52-20.98 178.97-21.1 178.37-21.1L178.37-21.1Q177.67-21.1 176.9-20.85 176.12-20.6 175.47-20.1L175.47-20.1 175.42-0.9Q175.42-0.45 175.22-0.28 175.02-0.1 174.05-0.05 173.07 0 170.77 0ZM197.02-13.95L192.62-13.95Q191.82-13.95 191.74-14.23 191.67-14.5 191.67-15.15L191.67-15.15 191.67-34.05Q191.67-34.15 191.72-34.58 191.77-35 192.37-35L192.37-35 196.92-35Q200.07-35 202.17-34.02 204.27-33.05 205.29-30.85 206.32-28.65 206.32-25L206.32-25Q206.32-21.8 205.54-19.68 204.77-17.55 203.47-16.3 202.17-15.05 200.52-14.5 198.87-13.95 197.02-13.95L197.02-13.95ZM191.17 0L191.17 0 191.17-34.1Q191.17-34.6 191.34-34.8 191.52-35 192.07-35L192.07-35 194.87-35Q195.52-35 195.62-34.55 195.72-34.1 195.72-34.1L195.72-34.1 195.72-0.9Q195.72-0.45 195.52-0.28 195.32-0.1 194.39-0.05 193.47 0 191.17 0ZM195.67-31L195.67-18.2 197.52-18.2Q198.72-18.2 199.52-18.88 200.32-19.55 200.77-21.15 201.22-22.75 201.22-25.5L201.22-25.5Q201.22-27.25 200.89-28.48 200.57-29.7 199.84-30.35 199.12-31 197.82-31L197.82-31 195.67-31ZM215.52 0.5L215.52 0.5Q214.12 0.5 212.84 0.28 211.57 0.05 210.54-0.73 209.52-1.5 208.94-3.05 208.37-4.6 208.37-7.15L208.37-7.15Q208.37-9.75 208.89-11.38 209.42-13 210.34-13.88 211.27-14.75 212.39-15.08 213.52-15.4 214.72-15.4L214.72-15.4Q215.47-15.4 216.49-15.25 217.52-15.1 218.22-14.7L218.22-14.7Q218.22-14.7 218.22-15.35 218.22-16 218.22-16.9 218.22-17.8 218.22-18.5L218.22-18.5Q218.22-19.5 217.92-20.05 217.62-20.6 217.02-20.85 216.42-21.1 215.47-21.1L215.47-21.1Q213.72-21.1 211.97-20.78 210.22-20.45 209.07-20L209.07-20Q208.67-20.7 208.54-21.4 208.42-22.1 208.42-22.6L208.42-22.6Q208.42-23 208.57-23.45 208.72-23.9 209.02-24.1L209.02-24.1Q209.62-24.5 211.67-25 213.72-25.5 216.62-25.5L216.62-25.5Q219.92-25.5 221.37-24.15 222.82-22.8 222.82-19.4L222.82-19.4 222.82-16.85Q222.82-14 222.79-11.08 222.77-8.15 222.72-5.6 222.67-3.05 222.57-1.15L222.57-1.15Q221.47-0.5 219.67 0 217.87 0.5 215.52 0.5ZM215.87-3.3L215.87-3.3Q216.57-3.3 217.19-3.53 217.82-3.75 218.07-4L218.07-4Q218.17-4.75 218.19-6.05 218.22-7.35 218.22-8.83 218.22-10.3 218.22-11.55L218.22-11.55Q217.82-11.8 217.24-11.9 216.67-12 216.22-12L216.22-12Q215.62-12 215.04-11.83 214.47-11.65 214.04-11.13 213.62-10.6 213.39-9.7 213.17-8.8 213.17-7.3L213.17-7.3Q213.17-6.1 213.34-5.33 213.52-4.55 213.87-4.1 214.22-3.65 214.74-3.48 215.27-3.3 215.87-3.3ZM231.86 0.5L231.86 0.5Q229.26 0.5 227.54-0.13 225.81-0.75 225.81-2.15L225.81-2.15Q225.81-2.7 225.99-3.38 226.16-4.05 226.61-4.8L226.61-4.8Q227.66-4.2 228.86-3.9 230.06-3.6 231.36-3.6L231.36-3.6Q233.11-3.6 234.04-4.33 234.96-5.05 234.96-6.35L234.96-6.35Q234.96-7.2 234.61-8.08 234.26-8.95 233.21-9.9L233.21-9.9 228.56-14.2Q226.96-15.6 226.39-16.95 225.81-18.3 225.81-19.5L225.81-19.5Q225.81-21.25 226.66-22.6 227.51-23.95 229.34-24.73 231.16-25.5 234.06-25.5L234.06-25.5Q236.66-25.5 238.01-25 239.36-24.5 239.81-23.83 240.26-23.15 240.26-22.6L240.26-22.6Q240.26-21.4 239.31-20.3L239.31-20.3Q238.21-20.95 237.09-21.25 235.96-21.55 234.61-21.55L234.61-21.55Q233.01-21.55 232.11-21 231.21-20.45 231.21-19.4L231.21-19.4Q231.21-18.85 231.54-18.23 231.86-17.6 233.01-16.55L233.01-16.55 237.36-12.75Q238.91-11.15 239.54-9.8 240.16-8.45 240.16-6.55L240.16-6.55Q240.16-3.2 237.94-1.35 235.71 0.5 231.86 0.5ZM248.66 0.5L248.66 0.5Q246.06 0.5 244.34-0.13 242.61-0.75 242.61-2.15L242.61-2.15Q242.61-2.7 242.79-3.38 242.96-4.05 243.41-4.8L243.41-4.8Q244.46-4.2 245.66-3.9 246.86-3.6 248.16-3.6L248.16-3.6Q249.91-3.6 250.84-4.33 251.76-5.05 251.76-6.35L251.76-6.35Q251.76-7.2 251.41-8.08 251.06-8.95 250.01-9.9L250.01-9.9 245.36-14.2Q243.76-15.6 243.19-16.95 242.61-18.3 242.61-19.5L242.61-19.5Q242.61-21.25 243.46-22.6 244.31-23.95 246.14-24.73 247.96-25.5 250.86-25.5L250.86-25.5Q253.46-25.5 254.81-25 256.16-24.5 256.61-23.83 257.06-23.15 257.06-22.6L257.06-22.6Q257.06-21.4 256.11-20.3L256.11-20.3Q255.01-20.95 253.89-21.25 252.76-21.55 251.41-21.55L251.41-21.55Q249.81-21.55 248.91-21 248.01-20.45 248.01-19.4L248.01-19.4Q248.01-18.85 248.34-18.23 248.66-17.6 249.81-16.55L249.81-16.55 254.16-12.75Q255.71-11.15 256.34-9.8 256.96-8.45 256.96-6.55L256.96-6.55Q256.96-3.2 254.74-1.35 252.51 0.5 248.66 0.5ZM276.11 0.3L276.11 0.3Q275.46 0.3 274.73-0.3 274.01-0.9 273.76-2.3L273.76-2.3 273.11-5.65Q272.81-7.35 272.53-9.33 272.26-11.3 272.06-13.25 271.86-15.2 271.73-16.8 271.61-18.4 271.53-19.35 271.46-20.3 271.46-20.3L271.46-20.3 270.81-22.75Q270.76-23.2 271.03-23.8 271.31-24.4 271.76-24.4L271.76-24.4 274.01-24.4 275.91-13.65Q276.16-12.45 276.36-10.98 276.56-9.5 276.73-8.18 276.91-6.85 277.01-6 277.11-5.15 277.11-5.15L277.11-5.15 277.41-5.15Q277.56-6.75 277.73-8.85 277.91-10.95 278.18-13.15 278.46-15.35 278.76-17.25L278.76-17.25 279.86-24.05Q279.96-24.5 280.18-24.7 280.41-24.9 281.33-24.95 282.26-25 284.31-25L284.31-25Q284.31-25 284.03-23.65 283.76-22.3 283.31-20.05 282.86-17.8 282.33-15.13 281.81-12.45 281.26-9.78 280.71-7.1 280.23-4.85 279.76-2.6 279.43-1.25 279.11 0.1 279.06 0.1L279.06 0.1Q279.06 0.1 278.33 0.2 277.61 0.3 276.11 0.3ZM265.31 0.3L265.31 0.3Q264.56 0.3 264.11-0.43 263.66-1.15 263.41-2.15L263.41-2.15Q263.06-3.7 262.58-5.88 262.11-8.05 261.58-10.53 261.06-13 260.53-15.4 260.01-17.8 259.61-19.75 259.21-21.7 258.96-22.9 258.71-24.1 258.71-24.1L258.71-24.1Q258.66-24.55 258.93-24.73 259.21-24.9 260.28-24.95 261.36-25 263.76-25L263.76-25 265.06-17.25Q265.41-15.25 265.68-13.13 265.96-11 266.16-9.2 266.36-7.4 266.48-6.28 266.61-5.15 266.61-5.15L266.61-5.15 266.91-5.15Q267.01-6 267.16-7.45 267.31-8.9 267.56-10.58 267.81-12.25 268.01-13.7L268.01-13.7 269.51-23.4Q269.61-24 269.86-24.2 270.11-24.4 271.01-24.4L271.01-24.4 272.21-24.4Q272.81-24.4 272.71-24.1 272.61-23.8 272.36-23.43 272.11-23.05 272.06-22.75L272.06-22.75 271.96-20.4Q271.96-20.4 271.88-19.43 271.81-18.45 271.68-16.82 271.56-15.2 271.33-13.25 271.11-11.3 270.86-9.33 270.61-7.35 270.26-5.6L270.26-5.6 269.21 0.1Q269.21 0.1 268.56 0.15 267.91 0.2 266.98 0.25 266.06 0.3 265.31 0.3ZM293.21 0.5L293.21 0.5Q291.26 0.5 289.78 0.03 288.31-0.45 287.31-1.8 286.31-3.15 285.83-5.73 285.36-8.3 285.36-12.5L285.36-12.5Q285.36-19.35 287.56-22.43 289.76-25.5 293.66-25.5L293.66-25.5Q296.31-25.5 298.03-24.43 299.76-23.35 300.58-20.55 301.41-17.75 301.41-12.65L301.41-12.65Q301.41-5.6 299.33-2.55 297.26 0.5 293.21 0.5ZM293.36-3.35L293.36-3.35Q294.26-3.35 294.93-4.05 295.61-4.75 296.03-6.75 296.46-8.75 296.46-12.6L296.46-12.6Q296.46-16.45 296.16-18.4 295.86-20.35 295.21-21 294.56-21.65 293.51-21.65L293.51-21.65Q292.56-21.65 291.83-20.95 291.11-20.25 290.71-18.25 290.31-16.25 290.31-12.45L290.31-12.45Q290.31-9.45 290.51-7.6 290.71-5.75 291.08-4.85 291.46-3.95 292.03-3.65 292.61-3.35 293.36-3.35ZM304.7 0L304.7 0 304.7-23.25Q306.1-24.25 307.85-24.88 309.6-25.5 311.55-25.5L311.55-25.5Q313.55-25.5 314.28-24.95 315-24.4 315-23.25L315-23.25Q315-22.85 314.9-22.1 314.8-21.35 314.5-20.6L314.5-20.6Q314-20.85 313.45-20.98 312.9-21.1 312.3-21.1L312.3-21.1Q311.6-21.1 310.83-20.85 310.05-20.6 309.4-20.1L309.4-20.1 309.35-0.9Q309.35-0.45 309.15-0.28 308.95-0.1 307.98-0.05 307 0 304.7 0ZM324 0.5L324 0.5Q322.4 0.5 320.95 0.13 319.5-0.25 318.35-1.48 317.2-2.7 316.55-5.1 315.9-7.5 315.9-11.5L315.9-11.5Q315.9-16.55 316.88-19.63 317.85-22.7 319.55-24.1 321.25-25.5 323.3-25.5L323.3-25.5Q324.4-25.5 325.25-25.25 326.1-25 326.65-24.55L326.65-24.55 326.65-34.7Q326.65-35.75 327-36.18 327.35-36.6 328.38-36.68 329.4-36.75 331.25-36.75L331.25-36.75 331.25-1Q330-0.45 328.2 0.03 326.4 0.5 324 0.5ZM324.15-3.55L324.15-3.55Q324.85-3.55 325.5-3.73 326.15-3.9 326.65-4.25L326.65-4.25 326.65-21.05Q326.3-21.35 325.83-21.45 325.35-21.55 324.8-21.55L324.8-21.55Q324.1-21.55 323.43-21.23 322.75-20.9 322.2-19.9 321.65-18.9 321.33-17.03 321-15.15 321-12.05L321-12.05Q321-9.4 321.2-7.75 321.4-6.1 321.8-5.18 322.2-4.25 322.8-3.9 323.4-3.55 324.15-3.55ZM340.55 0.5L340.55 0.5Q337.95 0.5 336.22-0.13 334.5-0.75 334.5-2.15L334.5-2.15Q334.5-2.7 334.67-3.38 334.85-4.05 335.3-4.8L335.3-4.8Q336.35-4.2 337.55-3.9 338.75-3.6 340.05-3.6L340.05-3.6Q341.8-3.6 342.72-4.33 343.65-5.05 343.65-6.35L343.65-6.35Q343.65-7.2 343.3-8.08 342.95-8.95 341.9-9.9L341.9-9.9 337.25-14.2Q335.65-15.6 335.07-16.95 334.5-18.3 334.5-19.5L334.5-19.5Q334.5-21.25 335.35-22.6 336.2-23.95 338.02-24.73 339.85-25.5 342.75-25.5L342.75-25.5Q345.35-25.5 346.7-25 348.05-24.5 348.5-23.83 348.95-23.15 348.95-22.6L348.95-22.6Q348.95-21.4 348-20.3L348-20.3Q346.9-20.95 345.77-21.25 344.65-21.55 343.3-21.55L343.3-21.55Q341.7-21.55 340.8-21 339.9-20.45 339.9-19.4L339.9-19.4Q339.9-18.85 340.22-18.23 340.55-17.6 341.7-16.55L341.7-16.55 346.05-12.75Q347.6-11.15 348.22-9.8 348.85-8.45 348.85-6.55L348.85-6.55Q348.85-3.2 346.62-1.35 344.4 0.5 340.55 0.5ZM366.04 0.5L366.04 0.5Q364.64 0.5 363.37 0.28 362.09 0.05 361.07-0.73 360.04-1.5 359.47-3.05 358.89-4.6 358.89-7.15L358.89-7.15Q358.89-9.75 359.42-11.38 359.94-13 360.87-13.88 361.79-14.75 362.92-15.08 364.04-15.4 365.24-15.4L365.24-15.4Q365.99-15.4 367.02-15.25 368.04-15.1 368.74-14.7L368.74-14.7Q368.74-14.7 368.74-15.35 368.74-16 368.74-16.9 368.74-17.8 368.74-18.5L368.74-18.5Q368.74-19.5 368.44-20.05 368.14-20.6 367.54-20.85 366.94-21.1 365.99-21.1L365.99-21.1Q364.24-21.1 362.49-20.78 360.74-20.45 359.59-20L359.59-20Q359.19-20.7 359.07-21.4 358.94-22.1 358.94-22.6L358.94-22.6Q358.94-23 359.09-23.45 359.24-23.9 359.54-24.1L359.54-24.1Q360.14-24.5 362.19-25 364.24-25.5 367.14-25.5L367.14-25.5Q370.44-25.5 371.89-24.15 373.34-22.8 373.34-19.4L373.34-19.4 373.34-16.85Q373.34-14 373.32-11.08 373.29-8.15 373.24-5.6 373.19-3.05 373.09-1.15L373.09-1.15Q371.99-0.5 370.19 0 368.39 0.5 366.04 0.5ZM366.39-3.3L366.39-3.3Q367.09-3.3 367.72-3.53 368.34-3.75 368.59-4L368.59-4Q368.69-4.75 368.72-6.05 368.74-7.35 368.74-8.83 368.74-10.3 368.74-11.55L368.74-11.55Q368.34-11.8 367.77-11.9 367.19-12 366.74-12L366.74-12Q366.14-12 365.57-11.83 364.99-11.65 364.57-11.13 364.14-10.6 363.92-9.7 363.69-8.8 363.69-7.3L363.69-7.3Q363.69-6.1 363.87-5.33 364.04-4.55 364.39-4.1 364.74-3.65 365.27-3.48 365.79-3.3 366.39-3.3ZM377.09 0L377.09 0 377.09-23.8Q378.04-24.25 379.37-24.63 380.69-25 382.17-25.25 383.64-25.5 384.94-25.5L384.94-25.5Q387.59-25.5 389.12-24.88 390.64-24.25 391.34-22.8 392.04-21.35 392.04-18.9L392.04-18.9 392.04-0.9Q392.04-0.45 391.82-0.28 391.59-0.1 390.62-0.05 389.64 0 387.34 0L387.34 0 387.34-17.5Q387.34-19.75 386.87-20.65 386.39-21.55 384.79-21.55L384.79-21.55Q384.09-21.55 383.22-21.35 382.34-21.15 381.64-20.75L381.64-20.75 381.64-0.9Q381.64-0.45 381.44-0.28 381.24-0.1 380.29-0.05 379.34 0 377.09 0ZM403.74 0.5L403.74 0.5Q402.14 0.5 400.69 0.13 399.24-0.25 398.09-1.48 396.94-2.7 396.29-5.1 395.64-7.5 395.64-11.5L395.64-11.5Q395.64-16.55 396.61-19.63 397.59-22.7 399.29-24.1 400.99-25.5 403.04-25.5L403.04-25.5Q404.14-25.5 404.99-25.25 405.84-25 406.39-24.55L406.39-24.55 406.39-34.7Q406.39-35.75 406.74-36.18 407.09-36.6 408.11-36.68 409.14-36.75 410.99-36.75L410.99-36.75 410.99-1Q409.74-0.45 407.94 0.03 406.14 0.5 403.74 0.5ZM403.89-3.55L403.89-3.55Q404.59-3.55 405.24-3.73 405.89-3.9 406.39-4.25L406.39-4.25 406.39-21.05Q406.04-21.35 405.56-21.45 405.09-21.55 404.54-21.55L404.54-21.55Q403.84-21.55 403.16-21.23 402.49-20.9 401.94-19.9 401.39-18.9 401.06-17.03 400.74-15.15 400.74-12.05L400.74-12.05Q400.74-9.4 400.94-7.75 401.14-6.1 401.54-5.18 401.94-4.25 402.54-3.9 403.14-3.55 403.89-3.55ZM426.28 0L422.53 0 422.53-34.1Q422.53-34.1 422.66-34.55 422.78-35 423.38-35L423.38-35 435.38-35Q435.38-33.15 435.36-32.33 435.33-31.5 435.16-31.3 434.98-31.1 434.53-31.1L434.53-31.1 427.08-31.1 427.08-0.9Q427.08-0.9 427.01-0.45 426.93 0 426.28 0L426.28 0ZM433.28-16.95L423.03-16.95 423.03-21.1 434.13-21.1Q434.13-18.55 434.03-17.75 433.93-16.95 433.28-16.95L433.28-16.95ZM437.98 0L437.98 0 437.98-22.95Q437.98-24 438.36-24.43 438.73-24.85 439.73-24.93 440.73-25 442.63-25L442.63-25 442.63-0.9Q442.63-0.45 442.43-0.28 442.23-0.1 441.26-0.05 440.28 0 437.98 0ZM440.18-28.05L440.18-28.05Q439.08-28.05 438.48-28.8 437.88-29.55 437.93-31.5L437.93-31.5Q437.93-33 438.56-33.9 439.18-34.8 440.48-34.8L440.48-34.8Q441.78-34.8 442.26-34.1 442.73-33.4 442.73-31.65L442.73-31.65Q442.68-29.95 442.06-29 441.43-28.05 440.18-28.05ZM446.83 0L446.83 0 446.83-34.7Q446.83-35.75 447.18-36.18 447.53-36.6 448.53-36.68 449.53-36.75 451.38-36.75L451.38-36.75 451.38-0.9Q451.38-0.45 451.18-0.28 450.98-0.1 450.03-0.05 449.08 0 446.83 0ZM462.73 0.5L462.73 0.5Q460.98 0.5 459.53 0 458.08-0.5 457.03-1.75 455.98-3 455.38-5.3 454.78-7.6 454.78-11.25L454.78-11.25Q454.78-15.9 455.53-18.73 456.28-21.55 457.53-23 458.78-24.45 460.38-24.98 461.98-25.5 463.63-25.5L463.63-25.5Q466.73-25.5 468.38-23.53 470.03-21.55 470.03-17.45L470.03-17.45Q470.03-15.7 469.88-13.9 469.73-12.1 469.38-10.75L469.38-10.75Q467.73-10.4 465.7-10.23 463.68-10.05 461.8-10 459.93-9.95 458.73-9.95 457.53-9.95 457.53-9.95L457.53-9.95 457.63-13.65Q457.63-13.65 458.48-13.63 459.33-13.6 460.63-13.6 461.93-13.6 463.2-13.73 464.48-13.85 465.33-14.1L465.33-14.1Q465.48-14.75 465.53-15.53 465.58-16.3 465.58-17L465.58-17Q465.53-19.6 465-20.55 464.48-21.5 463.08-21.5L463.08-21.5Q462.28-21.5 461.63-21 460.98-20.5 460.5-19.35 460.03-18.2 459.78-16.28 459.53-14.35 459.53-11.45L459.53-11.45Q459.53-9.3 459.75-7.85 459.98-6.4 460.45-5.55 460.93-4.7 461.75-4.33 462.58-3.95 463.73-3.95L463.73-3.95Q465.18-3.95 466.6-4.35 468.03-4.75 469.28-5.45L469.28-5.45Q469.53-4.8 469.6-3.93 469.68-3.05 469.68-2.35L469.68-2.35Q469.68-1.5 468.73-0.85 467.78-0.2 466.2 0.15 464.63 0.5 462.73 0.5ZM478.57 0.5L478.57 0.5Q475.97 0.5 474.25-0.13 472.52-0.75 472.52-2.15L472.52-2.15Q472.52-2.7 472.7-3.38 472.87-4.05 473.32-4.8L473.32-4.8Q474.37-4.2 475.57-3.9 476.77-3.6 478.07-3.6L478.07-3.6Q479.82-3.6 480.75-4.33 481.67-5.05 481.67-6.35L481.67-6.35Q481.67-7.2 481.32-8.08 480.97-8.95 479.92-9.9L479.92-9.9 475.27-14.2Q473.67-15.6 473.1-16.95 472.52-18.3 472.52-19.5L472.52-19.5Q472.52-21.25 473.37-22.6 474.22-23.95 476.05-24.73 477.87-25.5 480.77-25.5L480.77-25.5Q483.37-25.5 484.72-25 486.07-24.5 486.52-23.83 486.97-23.15 486.97-22.6L486.97-22.6Q486.97-21.4 486.02-20.3L486.02-20.3Q484.92-20.95 483.8-21.25 482.67-21.55 481.32-21.55L481.32-21.55Q479.72-21.55 478.82-21 477.92-20.45 477.92-19.4L477.92-19.4Q477.92-18.85 478.25-18.23 478.57-17.6 479.72-16.55L479.72-16.55 484.07-12.75Q485.62-11.15 486.25-9.8 486.87-8.45 486.87-6.55L486.87-6.55Q486.87-3.2 484.65-1.35 482.42 0.5 478.57 0.5Z" opacity="1" transform="matrix(1,0,0,1,0,0)" fill="#ffffff" class="undefined-text-1" data-fill-palette-color="secondary" id="text-1"></path></svg></g></svg></g></svg></g></svg></g><g></g></svg></g></svg></g></svg></g><defs></defs></svg><rect width="395.52" height="247.2" fill="none" stroke="none" visibility="hidden"></rect></g></svg></g></svg>